<svg width="23" height="30" viewBox="0 0 23 30" fill="none" xmlns="http://www.w3.org/2000/svg">
<g clip-path="url(#clip0_13_769)">
<path d="M11.1863 0C13.2067 0 15.0295 0.81543 16.6053 2.17285C18.6011 3.88184 20.2065 6.48682 21.2982 9.38233C22.3893 12.2371 22.9653 15.259 23 18.3105C23 21.4844 22.259 24.3384 20.6659 26.1597C20.4609 26.4038 20.2485 26.6138 20.0361 26.814C17.865 28.8623 14.8048 29.9121 11.7593 29.9878C8.71392 30.0635 5.68084 29.187 3.53447 27.3438C3.32947 27.1655 3.1294 26.9775 2.93675 26.7798C0.891645 24.6582 0 21.3965 0 17.8613C0.0266508 14.9229 0.564716 12.0109 1.59064 9.25293C2.61072 6.49658 4.0828 4.0332 5.86115 2.35596C7.40979 0.88623 9.22272 0 11.1863 0ZM4.79414 11.7993C4.74289 11.953 4.63464 12.0817 4.49119 12.1597C4.34774 12.2376 4.17975 12.2589 4.02105 12.2192C3.94293 12.2063 3.86833 12.1777 3.80189 12.135C3.73545 12.0924 3.67857 12.0368 3.6348 11.9715C3.59102 11.9063 3.56128 11.8328 3.54742 11.7558C3.53356 11.6787 3.53588 11.5996 3.55423 11.5234C3.85748 10.4146 4.28322 9.34203 4.82378 8.3252C5.32329 7.37033 5.94324 6.4819 6.66881 5.68115C6.78419 5.56324 6.939 5.4908 7.1044 5.47732C7.2698 5.46385 7.43452 5.51026 7.56787 5.60791C7.63175 5.65199 7.68534 5.70907 7.72505 5.77531C7.76476 5.84156 7.78966 5.91544 7.79808 5.99199C7.80651 6.06854 7.79825 6.14599 7.77388 6.21913C7.74951 6.29226 7.70959 6.3594 7.65679 6.41602C6.99467 7.14344 6.42941 7.9516 5.97476 8.8208C5.47211 9.76793 5.07619 10.7668 4.79414 11.7993ZM9.13875 5.15137C9.00038 5.24182 8.83331 5.27909 8.66905 5.25616C8.50479 5.23322 8.3547 5.15166 8.2471 5.02686C8.19746 4.9675 8.16131 4.89829 8.1411 4.82392C8.1209 4.74955 8.11711 4.67175 8.12999 4.5958C8.14288 4.51985 8.17213 4.44753 8.21578 4.38373C8.25942 4.31994 8.31643 4.26617 8.38295 4.22607C8.62174 4.06945 8.86911 3.926 9.12393 3.79639C9.3692 3.67002 9.62154 3.55754 9.87972 3.45947C10.0336 3.40085 10.204 3.40088 10.3578 3.45953C10.5117 3.51819 10.6379 3.63129 10.7121 3.77686C10.7428 3.84771 10.7583 3.92407 10.7577 4.00114C10.7571 4.07822 10.7404 4.15433 10.7086 4.22472C10.6769 4.2951 10.6307 4.35823 10.5731 4.41014C10.5154 4.46205 10.4476 4.50162 10.3737 4.52637C10.1609 4.60325 9.95302 4.69293 9.75129 4.79492C9.54084 4.90289 9.33637 5.02187 9.13875 5.15137ZM15.5606 3.1543C14.2639 2.03369 12.7868 1.35986 11.1863 1.35986C9.66731 1.35986 8.2224 2.09229 6.95533 3.29102C5.32764 4.82422 3.97412 7.10693 3.02073 9.67773C2.047 12.2999 1.53733 15.0682 1.51407 17.8613C1.51407 21.0938 2.2921 24.0479 4.07786 25.8984C4.23346 26.0596 4.39895 26.2183 4.57184 26.3672C6.407 27.9468 9.0523 28.7109 11.7174 28.6401C14.3824 28.5693 17.0573 27.6636 18.9394 25.8789C19.1346 25.6958 19.3173 25.5078 19.4828 25.3198C20.861 23.7549 21.4884 21.1938 21.4884 18.3105C21.4584 15.4082 20.9142 12.5336 19.8805 9.81689C18.8505 7.1167 17.376 4.71191 15.5606 3.1543Z" fill="black"/>
<path fill-rule="evenodd" clip-rule="evenodd" d="M15.5606 3.1543C14.2639 2.03369 12.7868 1.35986 11.1863 1.35986C9.66731 1.35986 8.2224 2.09229 6.95533 3.29102C5.32764 4.82422 3.97412 7.10693 3.02073 9.67773C2.047 12.2999 1.53733 15.0682 1.51407 17.8613C1.51407 21.0938 2.2921 24.0479 4.07786 25.8984C4.23346 26.0596 4.39895 26.2183 4.57184 26.3672C6.407 27.9468 9.0523 28.7109 11.7174 28.6401C14.3824 28.5693 17.0573 27.6636 18.9394 25.8789C19.1346 25.6958 19.3173 25.5078 19.4828 25.3198C20.861 23.7549 21.4884 21.1938 21.4884 18.3105C21.4584 15.4082 20.9142 12.5336 19.8805 9.81689C18.8505 7.1167 17.376 4.71191 15.5606 3.1543ZM4.49119 12.1597C4.63464 12.0817 4.74289 11.953 4.79414 11.7993C5.07619 10.7668 5.47211 9.76793 5.97476 8.8208C6.42941 7.9516 6.99467 7.14344 7.65679 6.41602C7.70959 6.3594 7.74951 6.29226 7.77388 6.21913C7.79825 6.14599 7.80651 6.06854 7.79808 5.99199C7.78966 5.91544 7.76476 5.84156 7.72505 5.77531C7.68534 5.70907 7.63175 5.65199 7.56787 5.60791C7.43452 5.51026 7.2698 5.46385 7.1044 5.47732C6.939 5.4908 6.78419 5.56324 6.66881 5.68115C5.94324 6.4819 5.32329 7.37033 4.82378 8.3252C4.28322 9.34203 3.85748 10.4146 3.55423 11.5234C3.53588 11.5996 3.53356 11.6787 3.54742 11.7558C3.56128 11.8328 3.59102 11.9063 3.6348 11.9715C3.67857 12.0368 3.73545 12.0924 3.80189 12.135C3.86833 12.1777 3.94293 12.2063 4.02105 12.2192C4.17975 12.2589 4.34774 12.2376 4.49119 12.1597ZM8.66905 5.25616C8.83331 5.27909 9.00038 5.24182 9.13875 5.15137C9.33637 5.02187 9.54084 4.90289 9.75129 4.79492C9.95302 4.69293 10.1609 4.60325 10.3737 4.52637C10.4476 4.50162 10.5154 4.46205 10.5731 4.41014C10.6307 4.35823 10.6769 4.2951 10.7086 4.22472C10.7404 4.15433 10.7571 4.07822 10.7577 4.00114C10.7583 3.92407 10.7428 3.84771 10.7121 3.77686C10.6379 3.63129 10.5117 3.51819 10.3578 3.45953C10.204 3.40088 10.0336 3.40085 9.87972 3.45947C9.62154 3.55754 9.3692 3.67002 9.12393 3.79639C8.86911 3.926 8.62174 4.06945 8.38295 4.22607C8.31643 4.26617 8.25942 4.31994 8.21578 4.38373C8.17213 4.44753 8.14288 4.51985 8.12999 4.5958C8.11711 4.67175 8.1209 4.74955 8.1411 4.82392C8.16131 4.89829 8.19746 4.9675 8.2471 5.02686C8.3547 5.15166 8.50479 5.23322 8.66905 5.25616Z" fill="white"/>
<path fill-rule="evenodd" clip-rule="evenodd" d="M11.5 11.5576C12.8591 11.5576 14.1877 11.956 15.3178 12.7024C16.4478 13.4489 17.3285 14.5098 17.8485 15.751C18.3685 16.9922 18.5045 18.358 18.2391 19.6756C17.9738 20.9931 17.3191 22.2034 16.3579 23.1531C15.3967 24.1029 14.1721 24.7496 12.839 25.0114C11.506 25.2732 10.1243 25.1383 8.86875 24.6239C7.61322 24.1094 6.54023 23.2385 5.78549 22.1213C5.03076 21.004 4.62817 19.6906 4.62866 18.3472C4.62932 16.5462 5.35355 14.8193 6.64211 13.5461C7.93066 12.2729 9.67804 11.5576 11.5 11.5576ZM7.0813 20.2637C7.10893 20.3265 7.12363 20.394 7.12452 20.4625C7.12541 20.531 7.11249 20.5989 7.08652 20.6624C7.06054 20.7258 7.02202 20.7836 6.97321 20.8321C6.92441 20.8807 6.8663 20.9192 6.80227 20.9453C6.73825 20.9714 6.6696 20.9847 6.60034 20.9843C6.53107 20.9839 6.46259 20.9698 6.39888 20.943C6.33517 20.9161 6.27752 20.877 6.2293 20.8278C6.18108 20.7787 6.14325 20.7205 6.11803 20.6567C5.59499 19.3945 5.53384 17.9915 5.94514 16.6895C6.33579 15.4159 7.19498 14.3332 8.35332 13.6548C8.4732 13.5862 8.61575 13.5674 8.74961 13.6027C8.88348 13.6379 8.99769 13.7243 9.06713 13.8428C9.13657 13.9613 9.15554 14.1022 9.11987 14.2345C9.0842 14.3668 8.99682 14.4797 8.87694 14.5483C7.94718 15.0957 7.25754 15.9663 6.94299 16.9897C6.60249 18.0637 6.6514 19.2215 7.0813 20.2637Z" fill="#FDBD1F"/>
</g>
<defs>
<clipPath id="clip0_13_769">
<rect width="23" height="30" fill="white"/>
</clipPath>
</defs>
</svg>
