<svg width="36" height="28" viewBox="0 0 36 28" fill="none" xmlns="http://www.w3.org/2000/svg">
<g clip-path="url(#clip0_13_775)">
<path d="M35.1562 2.32487C34.8369 2.65059 34.5234 2.98826 34.2099 3.31996L35.2763 2.85977C35.3017 2.84651 35.3282 2.83551 35.3554 2.8269C35.3859 2.81711 35.4173 2.81109 35.4492 2.80897C35.5105 2.80151 35.5727 2.80666 35.6321 2.82411C35.6915 2.84156 35.7468 2.87095 35.7949 2.91057C35.8933 2.99034 35.9575 3.10611 35.9736 3.2333C36.0535 4.15448 35.9752 5.08281 35.7422 5.97652C35.4654 7.11103 35.0726 8.21277 34.5703 9.26361C34.0233 10.4203 33.3865 11.5305 32.666 12.5836C31.9506 13.6406 31.1562 14.6396 30.29 15.5718C30.206 16.0978 30.1025 16.6097 29.9795 17.1078C29.8564 17.6058 29.7119 18.1039 29.5459 18.6019C29.3754 19.1097 29.1799 19.6084 28.9599 20.0961C28.7441 20.5743 28.5045 21.0411 28.2422 21.4946C28.2337 21.5094 28.2239 21.5234 28.2129 21.5364C28.2029 21.5518 28.1911 21.5658 28.1777 21.5782C27.9311 21.8534 27.6469 22.0909 27.334 22.2835C27.094 22.4321 26.8206 22.5154 26.54 22.5255C26.266 22.5257 25.9995 22.4344 25.7812 22.2655C25.5464 22.0884 25.3524 21.8609 25.2129 21.5991C25.2028 21.585 25.194 21.57 25.1865 21.5543C25.1784 21.539 25.1716 21.523 25.166 21.5065C25.0517 21.2077 24.9463 20.9089 24.8437 20.5802C24.7412 20.2514 24.6474 19.9496 24.5508 19.6359C24.4834 19.3908 24.4189 19.1398 24.3603 18.8858C24.3017 18.6318 24.2636 18.4585 24.2226 18.2493C22.9718 18.6065 21.6831 18.8072 20.3847 18.847C19.2681 18.8703 18.151 18.8284 17.039 18.7215C15.8458 18.5962 14.6445 18.5712 13.4472 18.6467C13.206 18.6644 12.9694 18.723 12.747 18.8201C12.5383 18.9117 12.3477 19.0413 12.1845 19.2026C11.9973 19.3861 11.8401 19.5989 11.7187 19.8331C11.5745 20.1129 11.4625 20.4087 11.3847 20.7146C10.8955 22.1908 10.456 23.7268 9.99606 25.2179C9.85175 25.7025 9.66649 26.1735 9.44235 26.6254C9.27734 26.9689 9.05867 27.2828 8.79489 27.5548C8.65598 27.6945 8.49442 27.8088 8.31735 27.8924C8.15518 27.9661 7.97922 28.0028 7.80173 28C7.62241 27.9958 7.44627 27.9509 7.2861 27.8685C7.1127 27.7784 6.95605 27.658 6.82321 27.5129C6.56044 27.217 6.34581 26.88 6.18747 26.5148C5.96974 26.0329 5.79235 25.5331 5.6572 25.0207C5.56931 24.698 5.48727 24.3872 5.41403 24.0884C5.34079 23.7895 5.26462 23.4907 5.19431 23.159C5.12399 22.8273 5.07126 22.5853 5.01852 22.3074C4.96579 22.0295 4.92184 21.7844 4.88083 21.5185C4.40036 21.1629 3.92868 20.8043 3.47458 20.4427C3.02048 20.0811 2.56638 19.6926 2.15036 19.3012C1.72877 18.9109 1.33701 18.4883 0.978486 18.0371C0.648671 17.618 0.370245 17.1594 0.149384 16.6715L0.131806 16.6297C0.129722 16.6148 0.129722 16.5997 0.131806 16.5848C0.0438581 16.3546 0.00241685 16.1086 0.00996834 15.8616C0.0175198 15.6146 0.0739085 15.3717 0.175751 15.1475C0.283898 14.9688 0.42587 14.8139 0.593375 14.6917C0.760879 14.5696 0.95056 14.4828 1.15134 14.4363C1.83061 14.2803 2.53319 14.261 3.2197 14.3795C3.95798 14.4751 4.68454 14.6425 5.2236 14.765L5.47263 14.8218L5.70407 14.8726L8.08591 15.3597C8.5383 15.4166 8.99582 15.4166 9.44821 15.3597C9.83221 15.3085 10.2042 15.1881 10.5468 15.0041C10.8703 14.8231 11.1551 14.5783 11.3847 14.2839C11.6475 13.942 11.8533 13.5584 11.9941 13.1483V13.1185L12.0088 13.0826C12.2402 12.6164 12.4804 12.1473 12.7295 11.6692C12.9785 11.191 13.2246 10.7279 13.4853 10.2467C13.7168 9.81943 13.9511 9.39509 14.1884 8.97972C14.4258 8.56435 14.6425 8.19082 14.8769 7.80235C14.3361 7.25218 13.8293 6.66835 13.3593 6.05422C12.8466 5.36094 12.4424 4.62583 12.416 3.98634C12.3951 3.75821 12.4321 3.52844 12.5234 3.31911C12.6148 3.10978 12.7573 2.92793 12.9375 2.79104C13.3125 2.49221 13.916 2.30993 14.8125 2.26809C15.2461 2.25016 15.6767 2.23821 16.1074 2.23821C16.5381 2.23821 16.9687 2.23821 17.3906 2.28901C17.8125 2.33981 18.1992 2.36969 18.6035 2.43842C18.9985 2.50453 19.3897 2.59231 19.7754 2.70139C20.8906 1.94981 22.1062 1.36608 23.3847 0.968198C24.8417 0.495224 26.3463 0.191487 27.8701 0.0627547C29.2581 -0.0713215 30.6578 -0.00391235 32.0273 0.262968C33.1351 0.468566 34.1846 0.921659 35.1006 1.58976L35.1504 1.63458C35.2371 1.7237 35.2864 1.84371 35.2881 1.96926C35.29 2.10058 35.2429 2.22772 35.1562 2.32487Z" fill="#2B3E44"/>
<path d="M23.25 2.05592C22.6802 2.25696 22.1235 2.4945 21.583 2.76713C21.0817 3.01642 20.6024 3.30936 20.1504 3.64269C20.0903 3.6868 20.0212 3.71643 19.9483 3.72935C19.8748 3.74085 19.7998 3.73575 19.7285 3.71441C19.3356 3.59718 18.9365 3.5024 18.5332 3.43052C18.1319 3.3588 17.7305 3.31099 17.3291 3.27812C16.9278 3.24525 16.5059 3.23031 16.0987 3.23031C15.6914 3.23031 15.2754 3.23031 14.8594 3.2572C14.4445 3.24945 14.0331 3.33623 13.6553 3.51121C13.5675 3.55001 13.4929 3.61437 13.4408 3.69622C13.3886 3.77808 13.3614 3.8738 13.3623 3.9714C13.4033 4.90971 14.8828 6.45165 15.7061 7.30331L15.8145 7.41686C15.891 7.49821 15.9385 7.60347 15.9492 7.71569C15.9588 7.82642 15.9308 7.93714 15.8701 8.02946C15.6065 8.46275 15.3457 8.91099 15.0821 9.37118C14.8184 9.83138 14.5635 10.2886 14.3174 10.7398C14.0713 11.191 13.8311 11.6363 13.5879 12.1144C13.3448 12.5925 13.1104 13.0438 12.8701 13.5249C12.6922 14.0368 12.4329 14.5153 12.1026 14.9413C11.7983 15.3241 11.423 15.642 10.9981 15.8766C10.5641 16.1142 10.0917 16.2701 9.60354 16.3368C9.0561 16.4103 8.50158 16.4103 7.95413 16.3368C7.15433 16.2083 6.30472 16.0051 5.50491 15.8408L5.28812 15.793L4.99515 15.7272C4.49417 15.6137 3.82327 15.4583 3.15237 15.3656C2.57081 15.2557 1.97386 15.2618 1.39456 15.3836C1.31398 15.4031 1.23837 15.4398 1.17272 15.4913C1.10707 15.5428 1.05287 15.608 1.0137 15.6824C0.93513 15.887 0.93513 16.1143 1.0137 16.3189C1.21714 16.7268 1.46691 17.109 1.75784 17.4574C2.0811 17.8604 2.43261 18.2389 2.8096 18.59C3.2139 18.9725 3.66214 19.349 4.13382 19.7255C4.6055 20.102 5.10355 20.4726 5.61331 20.8491C5.66411 20.8868 5.70695 20.9346 5.73929 20.9895C5.77082 21.0404 5.79176 21.0974 5.80081 21.1569V21.1748C5.84476 21.4736 5.89456 21.7725 5.95022 22.0713C6.00589 22.3701 6.06741 22.6689 6.13187 22.9678C6.19632 23.2666 6.26956 23.5654 6.34573 23.8642C6.4219 24.1631 6.50394 24.4828 6.58304 24.7607C6.69858 25.2054 6.84846 25.6401 7.03128 26.0606C7.15001 26.3489 7.3143 26.6154 7.51761 26.8495C7.57095 26.9078 7.6321 26.9581 7.69925 26.9989C7.74161 27.0258 7.79002 27.0413 7.83987 27.0438C7.88821 27.0426 7.93552 27.0293 7.97757 27.0049C8.04403 26.9678 8.10515 26.9216 8.15921 26.8675C8.35963 26.6539 8.52485 26.4087 8.64847 26.1413C8.835 25.7567 8.98983 25.3568 9.11136 24.946L10.4883 20.4636C10.5867 20.0769 10.7303 19.7037 10.916 19.352C11.0782 19.0471 11.2846 18.7691 11.5283 18.5272C11.7685 18.279 12.0503 18.0766 12.3604 17.9296C12.6801 17.7881 13.0207 17.7023 13.3682 17.6756C14.6143 17.5962 15.8646 17.6222 17.1065 17.7533C18.2261 17.8629 19.3513 17.9018 20.4756 17.8698C21.8248 17.8104 23.1605 17.5703 24.4483 17.1556C24.5679 17.1176 24.6975 17.1294 24.8086 17.1885C24.8744 17.2228 24.9311 17.2727 24.9739 17.3341C25.0168 17.3955 25.0445 17.4665 25.0547 17.5411C25.1074 17.8399 25.166 18.1387 25.2334 18.4376C25.3008 18.7364 25.377 19.0352 25.459 19.334C25.541 19.6329 25.6319 19.9317 25.7256 20.2305C25.8194 20.5293 25.9219 20.8102 26.0186 21.1031C26.0827 21.2167 26.166 21.3179 26.2647 21.4019C26.3296 21.4605 26.4124 21.4943 26.4991 21.4975C26.6392 21.4863 26.7738 21.4368 26.8887 21.3541C27.0895 21.2314 27.2753 21.085 27.4424 20.9178C27.6816 20.5022 27.8997 20.0743 28.0957 19.6359C28.2971 19.1882 28.476 18.7304 28.6319 18.2642C28.7959 17.7841 28.9375 17.2921 29.0567 16.788C29.1758 16.284 29.2735 15.769 29.3496 15.2431C29.358 15.1945 29.3728 15.1473 29.3936 15.1027C29.4128 15.0618 29.4385 15.0244 29.4698 14.9921C29.9063 14.5319 30.3252 14.0478 30.7237 13.5488C31.1221 13.0497 31.4619 12.5895 31.8018 12.0935C30.6788 11.7798 29.6012 11.3166 28.5967 10.7159C27.6316 10.1345 26.7625 9.40131 26.0215 8.54344C25.2722 7.66443 24.6623 6.67128 24.2139 5.6C23.7505 4.46372 23.4268 3.27331 23.25 2.05592Z" fill="#FF6D00"/>
<path d="M31.9014 4.3509L34.0752 2.06488C33.2822 1.60968 32.4145 1.30588 31.5146 1.16841C30.3329 0.975726 29.132 0.935567 27.9404 1.04888C27.2857 1.10365 26.6344 1.19443 25.9893 1.32081C25.3652 1.44034 24.75 1.59274 24.1553 1.76905C24.3236 2.93044 24.6337 4.06581 25.0781 5.14877C25.4908 6.14972 26.0564 7.07763 26.7539 7.89797C27.4548 8.71214 28.2835 9.40186 29.2061 9.93895C30.2009 10.5165 31.2684 10.9528 32.3789 11.2359C32.6211 10.8374 32.8506 10.448 33.0674 10.0674C33.2959 9.64909 33.5098 9.23671 33.7002 8.82732C34.1165 7.95612 34.4567 7.04915 34.7168 6.11697C34.9125 5.4285 35.0227 4.71773 35.0449 4.00128L32.4082 5.13682C32.2926 5.1845 32.1634 5.1845 32.0479 5.13682C31.9323 5.08729 31.8399 4.99415 31.79 4.87684C31.7531 4.79038 31.7428 4.69446 31.7607 4.60192C31.778 4.51294 31.8185 4.43036 31.8779 4.36286L31.9014 4.3509Z" fill="#FF6D00"/>
<path d="M29.4346 1.87364H29.4141C29.2115 1.81934 29.0005 1.80615 28.793 1.83479C28.5865 1.86471 28.3876 1.9347 28.207 2.04098C28.0242 2.14972 27.8632 2.29267 27.7324 2.46233C27.5989 2.63109 27.4994 2.82504 27.4394 3.03308V3.05101C27.3862 3.25862 27.3733 3.47484 27.4014 3.68751C27.432 3.89773 27.5006 4.10036 27.6035 4.28516C27.7091 4.4775 27.8516 4.6462 28.0224 4.78122C28.3619 5.04663 28.7908 5.16378 29.2148 5.10694C29.4213 5.07709 29.6202 5.00709 29.8008 4.90075C29.9795 4.79466 30.1358 4.65348 30.2607 4.48538C30.3896 4.31467 30.4842 4.11969 30.5391 3.91163V3.8937C30.5923 3.68711 30.6052 3.47187 30.5771 3.26019C30.5469 3.04985 30.4783 2.84714 30.375 2.66254C30.2691 2.47644 30.1288 2.31306 29.9619 2.18143C29.7961 2.0516 29.607 1.95617 29.4053 1.90053L29.4346 1.87364Z" fill="black"/>
<path d="M29.4756 1.65251H29.4961C29.7245 1.7162 29.9384 1.82482 30.126 1.97225C30.5082 2.27304 30.7587 2.71542 30.8232 3.20342C30.8562 3.44389 30.8422 3.68863 30.7822 3.92359V3.94451C30.7216 4.18273 30.6151 4.40624 30.4687 4.60192C30.3218 4.79497 30.1398 4.95731 29.9326 5.08004C29.6191 5.26243 29.2597 5.34638 28.8996 5.3214C28.5395 5.29642 28.1946 5.1636 27.9082 4.9396C27.7166 4.79024 27.5562 4.60329 27.4365 4.38976C27.318 4.1787 27.2405 3.94638 27.208 3.70544C27.1745 3.46615 27.1874 3.22247 27.2461 2.98826V2.96137C27.3734 2.48823 27.6788 2.08551 28.0957 1.84077C28.3026 1.71994 28.5304 1.64081 28.7666 1.60769C29.0023 1.57407 29.2423 1.58829 29.4726 1.64952L29.4756 1.65251Z" fill="white"/>
<path d="M29.2968 2.36969C29.437 2.40805 29.5683 2.47404 29.6836 2.56393C29.8032 2.65205 29.903 2.76511 29.9765 2.89563C30.1201 3.14978 30.161 3.45091 30.0908 3.73533V3.75625C30.0536 3.89691 29.9899 4.02885 29.9033 4.14472C29.8178 4.25915 29.7113 4.35556 29.5898 4.4286C29.4644 4.50224 29.3261 4.54997 29.1826 4.56905C29.0385 4.58731 28.8923 4.57717 28.7519 4.53917C28.6118 4.50081 28.4804 4.43482 28.3652 4.34493C28.2488 4.25677 28.1495 4.14734 28.0722 4.0222C27.9285 3.76702 27.8876 3.4649 27.958 3.17951V3.15859C28.0337 2.87282 28.2168 2.62905 28.4677 2.48026C28.7191 2.33391 29.0165 2.29318 29.2968 2.3667V2.36969Z" fill="#2B3E44"/>
</g>
<defs>
<clipPath id="clip0_13_775">
<rect width="36" height="28" fill="white"/>
</clipPath>
</defs>
</svg>
