<svg width="145" height="31" viewBox="0 0 145 31" fill="none" xmlns="http://www.w3.org/2000/svg">
<path d="M0.0227273 24V0.727272H4.94318V19.9432H14.9205V24H0.0227273ZM25.9744 24.3409C24.2093 24.3409 22.6828 23.9659 21.3949 23.2159C20.1146 22.4583 19.1259 21.4053 18.429 20.0568C17.732 18.7008 17.3835 17.1288 17.3835 15.3409C17.3835 13.5379 17.732 11.9621 18.429 10.6136C19.1259 9.25758 20.1146 8.20454 21.3949 7.45454C22.6828 6.69697 24.2093 6.31818 25.9744 6.31818C27.7396 6.31818 29.2623 6.69697 30.5426 7.45454C31.8305 8.20454 32.8229 9.25758 33.5199 10.6136C34.2169 11.9621 34.5653 13.5379 34.5653 15.3409C34.5653 17.1288 34.2169 18.7008 33.5199 20.0568C32.8229 21.4053 31.8305 22.4583 30.5426 23.2159C29.2623 23.9659 27.7396 24.3409 25.9744 24.3409ZM25.9972 20.5909C26.8002 20.5909 27.4706 20.3636 28.0085 19.9091C28.5464 19.447 28.9517 18.8182 29.2244 18.0227C29.5047 17.2273 29.6449 16.322 29.6449 15.3068C29.6449 14.2917 29.5047 13.3864 29.2244 12.5909C28.9517 11.7955 28.5464 11.1667 28.0085 10.7045C27.4706 10.2424 26.8002 10.0114 25.9972 10.0114C25.1866 10.0114 24.5047 10.2424 23.9517 10.7045C23.4063 11.1667 22.9934 11.7955 22.7131 12.5909C22.4403 13.3864 22.304 14.2917 22.304 15.3068C22.304 16.322 22.4403 17.2273 22.7131 18.0227C22.9934 18.8182 23.4063 19.447 23.9517 19.9091C24.5047 20.3636 25.1866 20.5909 25.9972 20.5909ZM45.5767 30.9091C44.0085 30.9091 42.6638 30.6932 41.5426 30.2614C40.429 29.8371 39.5426 29.2576 38.8835 28.5227C38.2244 27.7879 37.7964 26.9621 37.5994 26.0455L42.0767 25.4432C42.2131 25.7917 42.429 26.1174 42.7244 26.4205C43.0199 26.7235 43.41 26.9659 43.8949 27.1477C44.3873 27.3371 44.9858 27.4318 45.6903 27.4318C46.7434 27.4318 47.6108 27.1742 48.2926 26.6591C48.982 26.1515 49.3267 25.2992 49.3267 24.1023V20.9091H49.1222C48.91 21.3939 48.5919 21.8523 48.1676 22.2841C47.7434 22.7159 47.1979 23.0682 46.5312 23.3409C45.8646 23.6136 45.0691 23.75 44.1449 23.75C42.8343 23.75 41.6411 23.447 40.5653 22.8409C39.4972 22.2273 38.6449 21.2917 38.0085 20.0341C37.3797 18.7689 37.0653 17.1705 37.0653 15.2386C37.0653 13.2614 37.3873 11.6098 38.0312 10.2841C38.6752 8.95833 39.5313 7.96591 40.5994 7.30682C41.6752 6.64773 42.8532 6.31818 44.1335 6.31818C45.1108 6.31818 45.929 6.48485 46.5881 6.81818C47.2472 7.14394 47.7775 7.55303 48.179 8.04545C48.5881 8.5303 48.9025 9.00758 49.1222 9.47727H49.304V6.54545H54.1108V24.1705C54.1108 25.6553 53.7472 26.8977 53.0199 27.8977C52.2926 28.8977 51.285 29.6477 49.9972 30.1477C48.7169 30.6553 47.2434 30.9091 45.5767 30.9091ZM45.679 20.1136C46.4593 20.1136 47.1184 19.9205 47.6562 19.5341C48.2017 19.1402 48.6184 18.5795 48.9062 17.8523C49.2017 17.1174 49.3494 16.2386 49.3494 15.2159C49.3494 14.1932 49.2055 13.3068 48.9176 12.5568C48.6297 11.7992 48.2131 11.2121 47.6676 10.7955C47.1222 10.3788 46.4593 10.1705 45.679 10.1705C44.8835 10.1705 44.2131 10.3864 43.6676 10.8182C43.1222 11.2424 42.7093 11.8333 42.429 12.5909C42.1487 13.3485 42.0085 14.2235 42.0085 15.2159C42.0085 16.2235 42.1487 17.0947 42.429 17.8295C42.7169 18.5568 43.1297 19.1212 43.6676 19.5227C44.2131 19.9167 44.8835 20.1136 45.679 20.1136ZM65.8494 24.3409C64.0843 24.3409 62.5578 23.9659 61.2699 23.2159C59.9896 22.4583 59.0009 21.4053 58.304 20.0568C57.607 18.7008 57.2585 17.1288 57.2585 15.3409C57.2585 13.5379 57.607 11.9621 58.304 10.6136C59.0009 9.25758 59.9896 8.20454 61.2699 7.45454C62.5578 6.69697 64.0843 6.31818 65.8494 6.31818C67.6146 6.31818 69.1373 6.69697 70.4176 7.45454C71.7055 8.20454 72.6979 9.25758 73.3949 10.6136C74.0919 11.9621 74.4403 13.5379 74.4403 15.3409C74.4403 17.1288 74.0919 18.7008 73.3949 20.0568C72.6979 21.4053 71.7055 22.4583 70.4176 23.2159C69.1373 23.9659 67.6146 24.3409 65.8494 24.3409ZM65.8722 20.5909C66.6752 20.5909 67.3456 20.3636 67.8835 19.9091C68.4214 19.447 68.8267 18.8182 69.0994 18.0227C69.3797 17.2273 69.5199 16.322 69.5199 15.3068C69.5199 14.2917 69.3797 13.3864 69.0994 12.5909C68.8267 11.7955 68.4214 11.1667 67.8835 10.7045C67.3456 10.2424 66.6752 10.0114 65.8722 10.0114C65.0616 10.0114 64.3797 10.2424 63.8267 10.7045C63.2813 11.1667 62.8684 11.7955 62.5881 12.5909C62.3153 13.3864 62.179 14.2917 62.179 15.3068C62.179 16.322 62.3153 17.2273 62.5881 18.0227C62.8684 18.8182 63.2813 19.447 63.8267 19.9091C64.3797 20.3636 65.0616 20.5909 65.8722 20.5909ZM86.8722 6.54545V10.1818H76.3608V6.54545H86.8722ZM78.7472 2.36364H83.5881V18.6364C83.5881 19.0833 83.6563 19.4318 83.7926 19.6818C83.929 19.9242 84.1184 20.0947 84.3608 20.1932C84.6108 20.2917 84.8987 20.3409 85.2244 20.3409C85.4517 20.3409 85.679 20.322 85.9062 20.2841C86.1335 20.2386 86.3078 20.2045 86.429 20.1818L87.1903 23.7841C86.9479 23.8598 86.607 23.947 86.1676 24.0455C85.7282 24.1515 85.1941 24.2159 84.5653 24.2386C83.3987 24.2841 82.3759 24.1288 81.4972 23.7727C80.6259 23.4167 79.9479 22.8636 79.4631 22.1136C78.9782 21.3636 78.7396 20.4167 78.7472 19.2727V2.36364ZM93.0142 30.5455C92.4006 30.5455 91.8248 30.4962 91.2869 30.3977C90.7566 30.3068 90.3172 30.1894 89.9688 30.0455L91.0597 26.4318C91.6278 26.6061 92.1392 26.7008 92.5938 26.7159C93.0559 26.7311 93.4536 26.625 93.7869 26.3977C94.1278 26.1705 94.4044 25.7841 94.6165 25.2386L94.9006 24.5L88.6392 6.54545H93.7301L97.3438 19.3636H97.5256L101.173 6.54545H106.298L99.5142 25.8864C99.1884 26.8258 98.7453 27.6439 98.1847 28.3409C97.6316 29.0455 96.9309 29.5871 96.0824 29.9659C95.2339 30.3523 94.2112 30.5455 93.0142 30.5455ZM108.776 30.5455V6.54545H113.548V9.47727H113.764C113.976 9.00758 114.283 8.5303 114.685 8.04545C115.094 7.55303 115.624 7.14394 116.276 6.81818C116.935 6.48485 117.753 6.31818 118.73 6.31818C120.003 6.31818 121.177 6.65152 122.253 7.31818C123.329 7.97727 124.188 8.97348 124.832 10.3068C125.476 11.6326 125.798 13.2955 125.798 15.2955C125.798 17.2424 125.484 18.8864 124.855 20.2273C124.234 21.5606 123.385 22.572 122.31 23.2614C121.241 23.9432 120.045 24.2841 118.719 24.2841C117.779 24.2841 116.98 24.1288 116.321 23.8182C115.67 23.5076 115.135 23.1174 114.719 22.6477C114.302 22.1705 113.984 21.6894 113.764 21.2045H113.616V30.5455H108.776ZM113.514 15.2727C113.514 16.3106 113.658 17.2159 113.946 17.9886C114.234 18.7614 114.651 19.3636 115.196 19.7955C115.741 20.2197 116.404 20.4318 117.185 20.4318C117.973 20.4318 118.639 20.2159 119.185 19.7841C119.73 19.3447 120.143 18.7386 120.423 17.9659C120.711 17.1856 120.855 16.2879 120.855 15.2727C120.855 14.2652 120.715 13.3788 120.435 12.6136C120.154 11.8485 119.741 11.25 119.196 10.8182C118.651 10.3864 117.98 10.1705 117.185 10.1705C116.397 10.1705 115.73 10.3788 115.185 10.7955C114.647 11.2121 114.234 11.803 113.946 12.5682C113.658 13.3333 113.514 14.2348 113.514 15.2727ZM136.98 24.3409C135.185 24.3409 133.639 23.9773 132.344 23.25C131.056 22.5152 130.063 21.4773 129.366 20.1364C128.67 18.7879 128.321 17.1932 128.321 15.3523C128.321 13.5568 128.67 11.9811 129.366 10.625C130.063 9.26894 131.045 8.21212 132.31 7.45454C133.582 6.69697 135.075 6.31818 136.787 6.31818C137.938 6.31818 139.01 6.50379 140.003 6.875C141.003 7.23864 141.874 7.78788 142.616 8.52273C143.366 9.25758 143.95 10.1818 144.366 11.2955C144.783 12.4015 144.991 13.697 144.991 15.1818V16.5114H130.253V13.5114H140.435C140.435 12.8144 140.283 12.197 139.98 11.6591C139.677 11.1212 139.257 10.7008 138.719 10.3977C138.188 10.0871 137.571 9.93182 136.866 9.93182C136.132 9.93182 135.48 10.1023 134.912 10.4432C134.351 10.7765 133.912 11.2273 133.594 11.7955C133.276 12.3561 133.113 12.9811 133.105 13.6705V16.5227C133.105 17.3864 133.264 18.1326 133.582 18.7614C133.908 19.3902 134.366 19.875 134.957 20.2159C135.548 20.5568 136.249 20.7273 137.06 20.7273C137.598 20.7273 138.09 20.6515 138.537 20.5C138.984 20.3485 139.366 20.1212 139.685 19.8182C140.003 19.5152 140.245 19.1439 140.412 18.7045L144.889 19C144.662 20.0758 144.196 21.0152 143.491 21.8182C142.795 22.6136 141.893 23.2348 140.787 23.6818C139.688 24.1212 138.42 24.3409 136.98 24.3409Z" fill="white"/>
</svg>
