<svg width="14" height="30" viewBox="0 0 14 30" fill="none" xmlns="http://www.w3.org/2000/svg">
<g clip-path="url(#clip0_13_795)">
<path fill-rule="evenodd" clip-rule="evenodd" d="M3.18586 0H10.8116C11.1365 0 11.4335 0.126953 11.6493 0.334473C11.8626 0.539551 11.9971 0.825195 11.9971 1.14014V2.84668C11.9971 3.15918 11.8651 3.44482 11.6493 3.6499C11.4361 3.85498 11.1391 3.98438 10.8116 3.98438H10.6669C11.6341 5.57373 12.3931 7.21191 12.9389 8.89648C13.5456 10.7593 13.8959 12.6807 13.9949 14.6631C13.9949 14.6704 13.9949 14.6753 13.9949 14.6826V26.6333C13.9949 26.6504 13.9949 26.6675 13.9924 26.6846C13.9492 27.5781 13.7208 28.3252 13.2638 28.894C12.7891 29.4849 12.0885 29.8657 11.1213 29.9976C11.101 30 11.0807 30.0024 11.0578 30.0024H3.02339C3.00562 30.0024 2.98785 30.0024 2.97008 30C2.0816 29.9634 1.41142 29.6729 0.918948 29.1724C0.436627 28.6792 0.147235 27.998 0.00761559 27.1631C0.00507706 27.1411 0.00253853 27.1191 0.00253853 27.0972H0V14.7192C0 14.6997 0 14.6826 0.00253853 14.6655C0.177697 12.5293 0.561015 10.5493 1.11695 8.73291C1.65005 6.99463 2.34053 5.40771 3.15793 3.98438C2.84315 3.97705 2.55884 3.8501 2.35068 3.6499C2.13744 3.44482 2.0029 3.15918 2.0029 2.84424V1.1377C2.0029 0.825195 2.1349 0.539551 2.35068 0.332031C2.56392 0.126953 2.86092 0 3.18586 0ZM0.885947 16.7432H13.1141V14.6802C13.0176 12.7808 12.68 10.9375 12.0961 9.14795C11.5351 7.42432 10.7481 5.75195 9.73273 4.13574L4.06165 4.1748C3.21632 5.60547 2.50299 7.20947 1.96228 8.97461C1.42412 10.7324 1.05095 12.6538 0.883409 14.7266V16.7432H0.885947ZM13.1141 21.8286H0.885947V27.0654C1.00018 27.7124 1.21596 28.23 1.5612 28.584C1.89374 28.9233 2.36337 29.1211 3.00308 29.1455C3.00816 29.1455 3.01577 29.1455 3.02085 29.1455H11.035C11.7407 29.043 12.2408 28.7744 12.5683 28.3691C12.9059 27.9468 13.0785 27.3633 13.1115 26.6431V26.6284V21.8286H13.1141ZM10.8116 0.852051H3.18586C3.10462 0.852051 3.03101 0.883789 2.97516 0.9375C2.92185 0.98877 2.88631 1.06201 2.88631 1.14014V2.84668C2.88631 2.9248 2.91931 2.99561 2.97516 3.04932C3.02847 3.10059 3.10462 3.13477 3.18586 3.13477H10.8116C10.8928 3.13477 10.9665 3.10303 11.0223 3.04932C11.0756 2.99805 11.1112 2.9248 11.1112 2.84668V1.1377C11.1112 1.05957 11.0781 0.98877 11.0223 0.935059C10.969 0.883789 10.8928 0.852051 10.8116 0.852051ZM5.54415 17.7271V20.8447H4.76482L4.76228 18.7402L4.45258 20.8447H3.9068L3.57933 18.7866L3.57679 20.8447H2.79746V17.7271H3.94995C3.98296 17.915 4.01849 18.1372 4.05657 18.3911L4.1835 19.1821L4.38658 17.7271H5.54415ZM6.8718 17.7271V20.8447H5.97824V17.7271H6.8718ZM8.19692 17.7271V20.2222H8.73509V20.8447H7.30589V17.7271H8.19692ZM11.1568 17.7271L10.6466 19.1357L11.2025 20.8447H10.2836L9.92058 19.5093V20.8447H9.02702V17.7271H9.92058V18.938L10.3217 17.7271H11.1568Z" fill="black"/>
<path d="M0.885947 16.7432H13.1141V14.6802C13.0176 12.7808 12.68 10.9375 12.0961 9.14795C11.5351 7.42432 10.7481 5.75195 9.73273 4.13574L4.06165 4.1748C3.21632 5.60547 2.50299 7.20947 1.96228 8.97461C1.42412 10.7324 1.05095 12.6538 0.883409 14.7266V16.7432H0.885947Z" fill="white"/>
<path d="M13.1115 21.8286H0.885947V27.0654C1.00018 27.7124 1.21596 28.23 1.5612 28.584C1.89374 28.9233 2.36337 29.1211 3.00308 29.1455H3.02085H11.035C11.7407 29.043 12.2408 28.7744 12.5683 28.3691C12.9059 27.9468 13.0785 27.3633 13.1115 26.6431V26.6284V21.8286Z" fill="white"/>
<path d="M11.1568 17.7271L10.6466 19.1357L11.2025 20.8447H10.2836L9.92058 19.5093V20.8447H9.02702V17.7271H9.92058V18.938L10.3217 17.7271H11.1568Z" fill="white"/>
<path d="M8.19692 17.7271V20.2222H8.73509V20.8447H7.30589V17.7271H8.19692Z" fill="white"/>
<path d="M6.8718 17.7271V20.8447H5.97824V17.7271H6.8718Z" fill="white"/>
<path d="M5.54415 17.7271V20.8447H4.76482L4.76228 18.7402L4.45258 20.8447H3.9068L3.57933 18.7866L3.57679 20.8447H2.79746V17.7271H3.94995C3.98296 17.915 4.01849 18.1372 4.05657 18.3911L4.1835 19.1821L4.38658 17.7271H5.54415Z" fill="white"/>
<path d="M10.8116 0.852051H3.18586C3.10462 0.852051 3.03101 0.883789 2.97516 0.9375C2.92185 0.98877 2.88631 1.06201 2.88631 1.14014V2.84668C2.88631 2.9248 2.91931 2.99561 2.97516 3.04932C3.02847 3.10059 3.10462 3.13477 3.18586 3.13477H10.8116C10.8928 3.13477 10.9665 3.10303 11.0223 3.04932C11.0756 2.99805 11.1112 2.9248 11.1112 2.84668V1.1377C11.1112 1.05957 11.0781 0.98877 11.0223 0.935059C10.969 0.883789 10.8928 0.852051 10.8116 0.852051Z" fill="#503D22"/>
</g>
<defs>
<clipPath id="clip0_13_795">
<rect width="14" height="30" fill="white"/>
</clipPath>
</defs>
</svg>
