<svg width="42" height="43" viewBox="0 0 42 43" fill="none" xmlns="http://www.w3.org/2000/svg">
<g clip-path="url(#clip0_12_314)">
<rect x="44.0023" width="23" height="62.2287" transform="rotate(45 44.0023 0)" fill="#FF4F4F"/>
<path d="M20.4117 27.2327C20.4626 27.1818 20.5305 27.1818 20.5814 27.2327L24.4281 31.0794C24.479 31.1303 24.479 31.1982 24.4281 31.2491L24.3263 31.3509C24.281 31.3962 24.2358 31.4075 24.1735 31.4018L18.33 30.8192L21.4695 33.9587C21.5205 34.0096 21.5205 34.0775 21.4695 34.1284L21.2376 34.3604C21.1867 34.4113 21.1188 34.4113 21.0679 34.3604L17.2213 30.5137C17.1703 30.4628 17.1703 30.3949 17.2213 30.344L17.3287 30.2365C17.374 30.1913 17.4192 30.18 17.4815 30.1856L23.3307 30.7852L20.1798 27.6344C20.1289 27.5835 20.1289 27.5156 20.1798 27.4647L20.4117 27.2327ZM24.485 23.8835L22.4033 25.9652L23.8175 27.3795L25.6277 25.5693C25.6786 25.5184 25.7465 25.5184 25.7974 25.5693L25.9897 25.7616C26.0406 25.8125 26.0406 25.8804 25.9897 25.9313L24.1795 27.7415L25.656 29.2179L27.7377 27.1362C27.7886 27.0853 27.8565 27.0853 27.9074 27.1362L28.0997 27.3285C28.1506 27.3795 28.1506 27.4473 28.0997 27.4983L25.7012 29.8968C25.6503 29.9477 25.5824 29.9477 25.5315 29.8968L21.7245 26.0897C21.6735 26.0388 21.6735 25.9709 21.7245 25.92L24.123 23.5215C24.1739 23.4706 24.2418 23.4706 24.2927 23.5215L24.485 23.7138C24.5359 23.7647 24.5359 23.8326 24.485 23.8835ZM29.6125 18.0319C29.6691 17.9754 29.737 17.9754 29.7822 18.0546L32.4805 22.9704C32.5201 23.0326 32.5032 23.0948 32.4579 23.1401L32.3052 23.2928C32.2599 23.3381 32.209 23.355 32.1411 23.3211L27.7627 21.1602L29.9236 25.5386C29.9576 25.6065 29.9406 25.6574 29.8953 25.7026L29.7539 25.8441C29.7087 25.8893 29.6464 25.9063 29.5842 25.8667L24.6628 23.174C24.5836 23.1288 24.5836 23.0609 24.6401 23.0043L24.889 22.7554C24.9399 22.7045 24.9965 22.7045 25.0531 22.7385L26.7671 23.7171L29.2109 25.1087L27.9098 22.5744L27.0273 20.7529C26.9934 20.685 27.0103 20.6341 27.0556 20.5888L27.2027 20.4418C27.2479 20.3965 27.2988 20.3795 27.3667 20.4135L29.1996 21.2846L31.7564 22.597L30.3026 20.0797L29.3636 18.4279C29.3297 18.3714 29.3353 18.3091 29.3862 18.2582L29.6125 18.0319Z" fill="white"/>
</g>
<defs>
<clipPath id="clip0_12_314">
<path d="M0 0H42V28C42 36.2843 35.2843 43 27 43H0V0Z" fill="white"/>
</clipPath>
</defs>
</svg>
