<svg width="30" height="30" viewBox="0 0 30 30" fill="none" xmlns="http://www.w3.org/2000/svg">
<g clip-path="url(#clip0_13_748)">
<path d="M15.0577 11.5721C15.2447 11.1668 15.3776 10.7542 15.4785 10.3343C15.599 9.83623 15.6802 9.32842 15.7639 8.81328C15.8697 8.1541 15.9755 7.48272 16.1625 6.7918C16.3519 6.096 16.6226 5.37823 17.0581 4.63116C17.6116 3.67657 18.3276 2.84893 19.1371 2.17754C19.9761 1.4793 20.9185 0.949515 21.8879 0.622366C22.3111 0.478323 22.7416 0.373343 23.1722 0.309866C23.5954 0.246389 24.0186 0.224417 24.4344 0.246389C24.8674 0.268362 25.2931 0.336722 25.704 0.453909C26.1026 0.568655 26.4913 0.729788 26.8604 0.939749C27.446 1.27422 27.9799 1.73321 28.4375 2.32158C28.8656 2.87578 29.2298 3.54717 29.5029 4.34551C29.5496 4.47979 29.5915 4.61651 29.6333 4.75567C29.6727 4.89239 29.7096 5.03399 29.744 5.17803C29.776 5.31475 29.808 5.45879 29.8351 5.60528C29.8621 5.74688 29.8843 5.89092 29.9064 6.03496C30.027 6.90166 30.0319 7.71465 29.9359 8.48369C29.8375 9.25274 29.6382 9.98028 29.3503 10.6785C29.0649 11.367 28.6959 12.0213 28.253 12.6536C27.8126 13.2859 27.3008 13.8939 26.73 14.492L26.5307 14.6995C26.1321 15.117 25.7434 15.5247 25.394 15.9617C25.0471 16.3963 24.7395 16.8602 24.5008 17.3899C24.2474 17.9564 24.0703 18.513 23.9325 19.0647C23.7947 19.6214 23.6938 20.1683 23.5954 20.7127C23.4109 21.7283 23.2288 22.7366 22.8155 23.7864C22.4021 24.8387 21.7599 25.93 20.6601 27.0994C20.3058 27.4754 19.9368 27.8147 19.5529 28.1199C19.1593 28.4324 18.7533 28.7059 18.3424 28.9427C17.9192 29.1844 17.4862 29.3846 17.0507 29.5433C16.6127 29.7044 16.1698 29.8216 15.7319 29.8948C15.5621 29.9241 15.3948 29.9461 15.2324 29.9632C15.07 29.9803 14.9076 29.99 14.7526 29.9974C13.9628 30.0242 13.2518 29.9095 12.6219 29.6775C11.9551 29.4334 11.3769 29.0574 10.8873 28.574C10.7298 28.4202 10.5822 28.2542 10.4444 28.0784C10.3116 27.9075 10.1885 27.7317 10.0729 27.5462C10.0557 27.5364 10.0409 27.5291 10.0237 27.5169C9.99662 27.4998 9.96956 27.4803 9.94495 27.4583C8.61632 26.2547 7.86097 25.1512 7.38857 24.0721C6.91617 22.9979 6.72672 21.9529 6.52742 20.8592L6.52496 20.8421C6.31582 19.6946 6.09685 18.4886 5.49896 17.1531C5.2603 16.6233 4.95275 16.1595 4.60583 15.7249L4.6009 15.7176C4.25398 15.2855 3.86524 14.8777 3.46911 14.4603L3.27227 14.2527C2.70145 13.6522 2.18969 13.0442 1.74927 12.4119C1.30885 11.7796 0.937327 11.1253 0.651918 10.4368C0.364048 9.74102 0.162293 9.01348 0.0663359 8.24199C-0.0296208 7.47295 -0.0247 6.66241 0.095861 5.79326C0.194278 5.09014 0.371429 4.38946 0.637155 3.73028C0.883198 3.11504 1.20551 2.53887 1.60902 2.03106C1.99039 1.54766 2.44557 1.12774 2.97702 0.795706C3.46911 0.488089 4.03255 0.256155 4.66488 0.121878C5.40054 -0.0343722 6.17312 -0.039255 6.94569 0.0901395C7.73795 0.221975 8.53021 0.492972 9.2831 0.886038C10.0212 1.27178 10.7249 1.77471 11.3548 2.37774C11.9625 2.96123 12.5013 3.6375 12.9393 4.3919C13.3723 5.13897 13.6454 5.85674 13.8349 6.55254C14.0219 7.24346 14.1301 7.91485 14.2335 8.57403C14.3147 9.0916 14.3959 9.6043 14.5189 10.1048C14.6395 10.6004 14.8043 11.0862 15.0503 11.5623L15.0577 11.5721Z" fill="#7F573C"/>
<path d="M11.6378 15.9277C11.9355 15.625 12.2455 15.3052 12.5555 14.9731C12.8631 14.6411 13.1706 14.2969 13.4659 13.9453C13.6357 13.7402 13.803 13.5327 13.9629 13.3228L13.9678 13.3154C14.1081 13.1323 14.2434 12.9443 14.3713 12.7539L14.3024 12.644C14.2631 12.5781 14.2262 12.5171 14.1966 12.4658C14.1647 12.4097 14.1302 12.3486 14.0908 12.2754C14.0564 12.2119 14.0244 12.1509 13.9949 12.0947C13.7046 11.5332 13.5151 10.979 13.3773 10.4199C13.2395 9.86817 13.151 9.31152 13.0624 8.74756C12.9664 8.14209 12.868 7.52686 12.6982 6.89453C12.5285 6.26709 12.2898 5.62744 11.9109 4.97315C11.5295 4.31641 11.0596 3.72803 10.5331 3.22022C9.98685 2.69531 9.37667 2.2583 8.73942 1.92383C8.10709 1.59424 7.44523 1.36475 6.79076 1.25244C6.14858 1.1499 5.51625 1.15234 4.92083 1.27686C4.43121 1.3794 3.99571 1.56006 3.61188 1.80176C3.20099 2.06055 2.84669 2.3877 2.54652 2.76611C2.2119 3.18848 1.94125 3.67676 1.73458 4.19434C1.51068 4.7583 1.36059 5.36133 1.27448 5.9668C1.16868 6.72363 1.16376 7.43164 1.24741 8.10059C1.33107 8.76953 1.5033 9.39941 1.7518 10C2.00522 10.6104 2.33738 11.1938 2.73843 11.7651C3.14194 12.3389 3.61188 12.8955 4.13841 13.4497L4.33279 13.6548C4.76336 14.1064 5.18656 14.5483 5.57038 15.0342C5.95667 15.5225 6.30605 16.0547 6.58654 16.6821C7.24594 18.1543 7.47722 19.4336 7.69865 20.6494C7.8389 21.416 7.97176 22.1558 8.21781 22.8955C8.41218 23.4863 8.68036 24.0772 9.07649 24.6851C9.05435 24.5288 9.03221 24.3701 9.01744 24.2065C8.9953 23.9795 8.97808 23.7451 8.9707 23.5107C8.94609 22.8101 8.99038 22.0923 9.09864 21.3843C9.2069 20.6787 9.37913 19.9756 9.61287 19.3066L9.7851 18.8452L9.87859 18.6182L10.351 17.6563C10.5158 17.3633 10.693 17.085 10.8824 16.8188C11.1162 16.5015 11.3696 16.2012 11.6378 15.9277Z" fill="#ED9E6D" stroke="#CC624E" stroke-width="0.216" stroke-miterlimit="2.6131"/>
<path d="M14.3836 14.6899C14.0761 15.0586 13.7562 15.4175 13.4339 15.7642C13.1141 16.1084 12.7967 16.438 12.4891 16.748C12.1176 17.1265 11.7854 17.5659 11.4976 18.0493C11.1974 18.5547 10.944 19.1064 10.7422 19.6826C10.5331 20.2832 10.3781 20.9131 10.2797 21.5503C10.1812 22.1899 10.1419 22.8345 10.164 23.4619C10.1714 23.6694 10.1837 23.8745 10.2058 24.0772C10.2255 24.2773 10.2526 24.4775 10.287 24.6729C10.3953 25.3101 10.5749 25.9009 10.8209 26.4233C11.0596 26.9287 11.3622 27.3706 11.7313 27.7344C12.1028 28.1006 12.5457 28.3862 13.0575 28.5718L13.0624 28.5742C13.5496 28.75 14.1007 28.8355 14.7158 28.8159C14.8487 28.811 14.984 28.8013 15.1218 28.7891C15.2571 28.7744 15.3949 28.7573 15.5351 28.7329C15.9017 28.6719 16.2757 28.5718 16.6472 28.4351C17.0163 28.3008 17.3854 28.1274 17.7471 27.9224C18.1087 27.7173 18.463 27.4756 18.8075 27.2022C19.1446 26.9336 19.4718 26.6333 19.7867 26.2988C20.766 25.2563 21.3393 24.2773 21.7083 23.3276C22.0799 22.3755 22.2472 21.4453 22.4169 20.5103C22.5227 19.9316 22.6285 19.3506 22.7762 18.7598C22.9263 18.1641 23.1206 17.5537 23.406 16.9189C23.6865 16.2915 24.0359 15.7593 24.4222 15.271C24.806 14.7852 25.2292 14.3433 25.6598 13.8916L25.8542 13.6865C26.3807 13.1323 26.8506 12.5757 27.2517 12.002C27.6527 11.4307 27.9849 10.8472 28.2383 10.2368C28.4868 9.63623 28.659 9.00635 28.7427 8.33741C28.8264 7.66846 28.8214 6.96045 28.7156 6.20362C28.6984 6.0791 28.6763 5.95215 28.6541 5.82764C28.632 5.70313 28.6049 5.57862 28.5754 5.4541C28.5459 5.32715 28.5139 5.20508 28.4794 5.09033L28.477 5.08545C28.4425 4.97071 28.4056 4.85108 28.3638 4.72901C28.1374 4.06739 27.8422 3.51563 27.4977 3.06397C27.1336 2.58789 26.7104 2.22168 26.2503 1.95801C25.9673 1.79688 25.6672 1.67237 25.3547 1.58203C25.0324 1.48926 24.6978 1.43799 24.3607 1.4209C24.0236 1.40381 23.6767 1.42334 23.3273 1.47461C22.973 1.52832 22.6162 1.61621 22.2619 1.73584C21.4279 2.0166 20.6159 2.47559 19.8901 3.08106C19.1889 3.66455 18.5688 4.38477 18.0866 5.2124C17.7077 5.8667 17.4666 6.50635 17.2993 7.13379C17.1295 7.76612 17.0311 8.38135 16.9351 8.98682C16.8465 9.55323 16.758 10.1074 16.6202 10.6592C16.4824 11.2158 16.2929 11.7725 16.0026 12.334C15.7935 12.7393 15.5425 13.1421 15.2694 13.5352C14.9963 13.9307 14.6961 14.3164 14.3836 14.6899Z" fill="#FFAA5C"/>
<path d="M22.0946 6.75781C22.0602 6.91895 21.9618 7.04834 21.8314 7.13135C21.701 7.21436 21.541 7.24609 21.3787 7.21191C21.2163 7.17774 21.0859 7.08008 21.0022 6.95068C20.9186 6.82373 20.8866 6.6626 20.921 6.50147C20.9555 6.34522 21.0022 6.18652 21.0563 6.03027C21.1129 5.87402 21.1794 5.71533 21.2581 5.5542C21.3368 5.39795 21.4254 5.23926 21.5263 5.08057C21.6296 4.92188 21.7428 4.76318 21.8707 4.60693C21.9741 4.47998 22.1217 4.4043 22.2742 4.38721C22.4268 4.37012 22.5867 4.41162 22.7147 4.51416C22.8426 4.6167 22.9189 4.76318 22.9361 4.91455C22.9533 5.06592 22.9115 5.22461 22.8082 5.35156C22.7073 5.47607 22.6187 5.59815 22.54 5.72022C22.4612 5.84229 22.3948 5.95947 22.3358 6.07422C22.2792 6.18896 22.2324 6.30371 22.1906 6.41602C22.1512 6.5332 22.1192 6.64551 22.0946 6.75781Z" fill="#7F573C"/>
<path d="M19.5678 11.2939C19.5333 11.4551 19.4349 11.5845 19.3045 11.6675C19.1741 11.7505 19.0142 11.7822 18.8518 11.748C18.6894 11.7139 18.559 11.6162 18.4754 11.4868C18.3917 11.3574 18.3597 11.1987 18.3942 11.0376C18.4286 10.8813 18.4754 10.7227 18.5295 10.5664C18.5861 10.4102 18.6525 10.2515 18.7312 10.0903C18.81 9.93408 18.8985 9.77539 18.9994 9.6167C19.1028 9.45801 19.2159 9.29932 19.3439 9.14307C19.4472 9.01611 19.5948 8.94043 19.7474 8.92334C19.8999 8.90625 20.0599 8.94775 20.1878 9.05029C20.3158 9.15283 20.392 9.29932 20.4092 9.45068C20.4265 9.60205 20.3846 9.76074 20.2813 9.8877C20.1804 10.0122 20.0919 10.1343 20.0131 10.2563C19.9344 10.3784 19.868 10.4956 19.8089 10.6128C19.7523 10.7275 19.7056 10.8423 19.6637 10.9546C19.6244 11.0718 19.5924 11.1841 19.5678 11.2939Z" fill="#7F573C"/>
<path d="M16.571 16.7114C16.5365 16.8726 16.4381 17.002 16.3077 17.085C16.1773 17.168 16.0174 17.1997 15.855 17.1655C15.6926 17.1313 15.5622 17.0337 15.4785 16.9043C15.3949 16.7773 15.3629 16.6162 15.3973 16.4551C15.4318 16.2988 15.4785 16.1401 15.5327 15.9839C15.5892 15.8276 15.6557 15.6689 15.7344 15.5078C15.8131 15.3516 15.9017 15.1929 16.0026 15.0342C16.1059 14.8755 16.2191 14.7168 16.3471 14.5605C16.4504 14.4336 16.598 14.3579 16.7506 14.3408C16.9031 14.3237 17.063 14.3652 17.191 14.4678C17.3189 14.5703 17.3952 14.7168 17.4124 14.8682C17.4296 15.0195 17.3878 15.1782 17.2845 15.3052C17.1836 15.4297 17.095 15.5518 17.0163 15.6738C16.9376 15.7959 16.8711 15.9131 16.8121 16.0303C16.7555 16.145 16.7087 16.2598 16.6669 16.3721C16.6275 16.4868 16.5956 16.5991 16.571 16.7114Z" fill="#7F573C"/>
<path d="M13.707 21.4771C13.6726 21.6382 13.5741 21.7676 13.4437 21.8506C13.3158 21.9336 13.1534 21.9653 12.991 21.9312C12.8286 21.897 12.6982 21.7993 12.6146 21.6699C12.5309 21.543 12.4989 21.3818 12.5334 21.2207C12.5678 21.0645 12.6146 20.9058 12.6687 20.7495C12.7228 20.5933 12.7917 20.4346 12.8705 20.2734C12.9492 20.1172 13.0378 19.9585 13.1386 19.7998C13.242 19.6411 13.3552 19.4824 13.4831 19.3262C13.5864 19.1992 13.7341 19.1235 13.8866 19.1064C14.0392 19.0894 14.1991 19.1309 14.327 19.2334C14.455 19.3359 14.5312 19.4824 14.5485 19.6338C14.5657 19.7852 14.5239 19.9438 14.4205 20.0708C14.3197 20.1953 14.2311 20.3174 14.1523 20.4395C14.0736 20.5615 14.0072 20.6787 13.9481 20.7959C13.8915 20.9106 13.8423 21.0254 13.803 21.1377C13.7661 21.2549 13.7316 21.3672 13.707 21.4771Z" fill="#7F573C"/>
<path d="M25.8468 8.76465C25.8123 8.92578 25.7139 9.05518 25.5835 9.13818C25.4556 9.22119 25.2932 9.25293 25.1308 9.21875C24.9684 9.18457 24.838 9.08691 24.7543 8.95752C24.6707 8.83057 24.6387 8.66943 24.6731 8.5083C24.7076 8.35205 24.7543 8.19336 24.8085 8.03711C24.8626 7.88086 24.9315 7.72217 25.0102 7.56103C25.089 7.40478 25.1775 7.24609 25.2784 7.0874C25.3818 6.92871 25.4949 6.77002 25.6229 6.61377C25.7262 6.48682 25.8738 6.41113 26.0264 6.39404C26.1789 6.37695 26.3389 6.41846 26.4668 6.521C26.5947 6.62353 26.671 6.77002 26.6882 6.92139C26.7055 7.07275 26.6636 7.23145 26.5603 7.3584C26.4594 7.48291 26.3708 7.60498 26.2921 7.72705C26.2134 7.84912 26.1469 7.96631 26.0879 8.0835C26.0313 8.19824 25.9821 8.31299 25.9427 8.42529C25.9034 8.54248 25.8714 8.65479 25.8468 8.76465Z" fill="#7F573C"/>
<path d="M23.3175 13.3008C23.283 13.4619 23.1846 13.5913 23.0542 13.6743C22.9263 13.7573 22.7639 13.7891 22.6015 13.7549C22.4391 13.7207 22.3087 13.623 22.225 13.4937C22.1414 13.3667 22.1094 13.2056 22.1439 13.0444C22.1783 12.8882 22.225 12.7295 22.2792 12.5732C22.3333 12.417 22.4022 12.2583 22.4809 12.0972C22.5597 11.9409 22.6482 11.7822 22.7491 11.6235C22.8525 11.4648 22.9656 11.3062 23.0936 11.1499C23.1969 11.0229 23.3445 10.9473 23.4971 10.9302C23.6496 10.9131 23.8096 10.9546 23.9375 11.0571C24.0654 11.1597 24.1417 11.3062 24.1589 11.4575C24.1762 11.6089 24.1343 11.7676 24.031 11.8945C23.9301 12.019 23.8415 12.1411 23.7628 12.2632C23.6841 12.3853 23.6152 12.5024 23.5586 12.6196C23.502 12.7344 23.4528 12.8491 23.4134 12.9614C23.3765 13.0786 23.3421 13.1909 23.3175 13.3008Z" fill="#7F573C"/>
<path d="M20.3206 18.7183C20.2862 18.8794 20.1878 19.0088 20.0574 19.0918C19.9294 19.1748 19.7671 19.2065 19.6047 19.1724C19.4423 19.1382 19.3119 19.0405 19.2282 18.9111C19.1446 18.7842 19.1126 18.623 19.147 18.4619C19.1815 18.3057 19.2282 18.147 19.2824 17.9907C19.3365 17.8345 19.4054 17.6758 19.4841 17.5146C19.5628 17.3584 19.6514 17.1997 19.7523 17.041C19.8556 16.8823 19.9688 16.7236 20.0968 16.5674C20.2001 16.4404 20.3477 16.3647 20.5003 16.3477C20.6528 16.3306 20.8127 16.3721 20.9407 16.4746C21.0686 16.5771 21.1449 16.7236 21.1621 16.875C21.1793 17.0264 21.1375 17.1851 21.0342 17.312C20.9333 17.4365 20.8447 17.5586 20.766 17.6807C20.6873 17.8027 20.6208 17.9199 20.5618 18.0347C20.5052 18.1494 20.456 18.2642 20.4166 18.3765C20.3772 18.4961 20.3453 18.6084 20.3206 18.7183Z" fill="#7F573C"/>
<path d="M17.4592 23.4863C17.4248 23.6475 17.3263 23.7769 17.1959 23.8599C17.068 23.9429 16.9056 23.9746 16.7432 23.9404C16.5808 23.9063 16.4504 23.8086 16.3668 23.6792C16.2831 23.5522 16.2511 23.3911 16.2856 23.23C16.32 23.0737 16.3668 22.915 16.4209 22.7588C16.475 22.6025 16.5439 22.4438 16.6227 22.2827C16.7014 22.1265 16.79 21.9678 16.8908 21.8091C16.9942 21.6504 17.1074 21.4917 17.2353 21.3354C17.3386 21.2085 17.4863 21.1328 17.6388 21.1157C17.7914 21.0986 17.9513 21.1401 18.0792 21.2427C18.2072 21.3452 18.2834 21.4917 18.3007 21.6431C18.3179 21.7944 18.2761 21.9531 18.1727 22.0801C18.0718 22.2046 17.9833 22.3267 17.9045 22.4487C17.8258 22.5708 17.7594 22.688 17.7003 22.8052C17.6437 22.9199 17.597 23.0347 17.5552 23.147C17.5158 23.2617 17.4838 23.374 17.4592 23.4863Z" fill="#7F573C"/>
<path d="M5.30955 3.11035C5.96157 2.84912 6.73168 2.98584 7.74538 3.52295C9.22901 4.31152 10.8972 6.57471 11.2195 8.20068C11.5861 10.0635 10.7742 11.5112 9.25608 12.5244C8.69756 12.898 8.17103 13.1055 7.67402 13.1665C4.93803 13.4937 3.40026 9.83154 3.41502 7.50488C3.42486 5.9375 3.59463 3.79395 5.30955 3.11035Z" stroke="#BC574A" stroke-width="4.6057" stroke-miterlimit="2.6131" stroke-linecap="round" stroke-linejoin="round"/>
<path fill-rule="evenodd" clip-rule="evenodd" d="M5.30955 3.11035C5.96157 2.84912 6.73168 2.98584 7.74538 3.52295C9.22901 4.31152 10.8972 6.57471 11.2195 8.20068C11.5861 10.0635 10.7742 11.5112 9.25608 12.5244C8.69756 12.898 8.17103 13.1055 7.67402 13.1665C4.93803 13.4937 3.40026 9.83154 3.41502 7.50488C3.42486 5.9375 3.59463 3.79395 5.30955 3.11035Z" fill="#CC624E"/>
<path fill-rule="evenodd" clip-rule="evenodd" d="M10.1714 13.3105C10.5798 13.1641 11.0005 13.1665 11.4016 13.2642C11.8297 13.3667 12.2357 13.584 12.5629 13.8306L13.1854 14.2993L12.6589 14.8682C12.1373 15.4321 11.6279 16.0352 11.1678 16.6821C10.7127 17.3242 10.2919 18.02 9.94009 18.7866L9.25363 20.2808L8.63114 18.7573C8.3482 18.064 8.38018 17.4707 8.40971 16.8921C8.41463 16.814 8.41709 16.7358 8.41955 16.6748C8.44169 16.1255 8.49582 15.4736 8.70496 14.8828C8.94854 14.1919 9.3865 13.5962 10.1714 13.3105ZM12.1323 14.3896C11.0596 15.5493 10.0311 16.8848 9.293 18.4912C9.03219 17.854 9.10847 17.2705 9.13061 16.6992C9.16998 15.7129 9.32252 14.3677 10.415 13.9746C10.9932 13.7646 11.6649 14.0381 12.1323 14.3896Z" fill="#BC574A"/>
<path fill-rule="evenodd" clip-rule="evenodd" d="M10.4125 13.9746C10.9931 13.7647 11.6648 14.0381 12.1323 14.3897C11.0596 15.5493 10.0311 16.8848 9.29299 18.4912C9.03219 17.854 9.10846 17.2705 9.1306 16.6992C9.16751 15.7129 9.32006 14.3701 10.4125 13.9746Z" fill="#CC624E"/>
</g>
<defs>
<clipPath id="clip0_13_748">
<rect width="30" height="30" fill="white"/>
</clipPath>
</defs>
</svg>
