<svg width="9" height="10" viewBox="0 0 9 10" fill="none" xmlns="http://www.w3.org/2000/svg">
<g clip-path="url(#clip0_13_1065)">
<path fill-rule="evenodd" clip-rule="evenodd" d="M0.108507 1.68573C0.822223 2.21276 1.53026 2.7428 2.12791 3.42527C1.78533 5.05186 3.15265 6.35145 4.39966 7.11709C4.88784 7.41682 5.10361 7.62695 5.64706 7.52596L7.78722 9.77992C3.75961 11.2339 -0.760414 5.13389 0.108507 1.68573ZM6.19875 6.94644L6.66823 6.43389C6.8036 6.28586 7.02709 6.28398 7.16481 6.42958L8.89569 8.26141C9.03333 8.407 9.03507 8.64724 8.8997 8.79519L8.43007 9.30782C8.29463 9.45577 8.07113 9.45765 7.93342 9.31205L6.20254 7.48022C6.06482 7.33471 6.06316 7.09447 6.19875 6.94644ZM0.530362 0.607658L0.871056 0.162985C1.0171 -0.0276119 1.28178 -0.055119 1.45909 0.101867L3.23108 1.671C3.40839 1.82815 3.43376 2.1125 3.28786 2.30334L2.94702 2.74777C2.8009 2.93861 2.53629 2.96587 2.3589 2.80888L0.58722 1.23975C0.409908 1.08277 0.384166 0.798255 0.530362 0.607658Z" fill="white"/>
</g>
<defs>
<clipPath id="clip0_13_1065">
<rect width="9" height="10" fill="white"/>
</clipPath>
</defs>
</svg>
