<svg width="22" height="30" viewBox="0 0 22 30" fill="none" xmlns="http://www.w3.org/2000/svg">
<g clip-path="url(#clip0_13_739)">
<path fill-rule="evenodd" clip-rule="evenodd" d="M4.4372 13.4009C3.74336 7.03125 7.37705 2.55127 14.1914 0C10.0189 5.54443 17.7488 11.5503 18.1756 17.3071C19.1746 15.5615 19.7421 13.2324 19.8541 10.1172C24.9637 18.3252 20.7268 31.7407 9.48239 29.812C8.44998 29.6362 7.45573 29.3018 6.54969 28.8037C2.44868 26.5625 0 21.6772 0 17.0117C0 14.0381 1.24222 11.3843 2.84925 9.2749C3.06383 11.3403 3.52162 12.8809 4.4372 13.4009Z" fill="#EC6F59"/>
<path fill-rule="evenodd" clip-rule="evenodd" d="M8.07565 22.6025C6.91688 19.5386 7.07663 14.5898 10.3217 12.854C10.3455 18.5425 15.8175 19.2676 14.8042 25.3394C15.7388 24.2554 16.2109 22.522 16.2944 21.1523C17.7774 24.6289 16.6139 27.4097 14.499 28.8257C8.0685 33.1323 2.53214 24.4019 6.21351 19.6167C6.32557 20.686 7.60356 22.3364 8.07565 22.6025Z" fill="#FAD15C"/>
</g>
<defs>
<clipPath id="clip0_13_739">
<rect width="22" height="30" fill="white"/>
</clipPath>
</defs>
</svg>
