<svg width="8" height="8" viewBox="0 0 8 8" fill="none" xmlns="http://www.w3.org/2000/svg">
<g clip-path="url(#clip0_12_344)">
<path d="M4.38632 0.414858L5.28861 2.24314C5.35136 2.3703 5.47267 2.45841 5.61302 2.47877L7.6307 2.77197C7.98415 2.82337 8.12516 3.25758 7.8695 3.50672L6.40951 4.92984C6.30805 5.02879 6.26166 5.17147 6.28569 5.31115L6.63029 7.32066C6.6907 7.6726 6.32123 7.94093 6.00517 7.77489L4.20058 6.82621C4.07509 6.76029 3.92507 6.76029 3.79958 6.82621L1.99499 7.77489C1.67893 7.9411 1.30947 7.6726 1.36988 7.32066L1.71448 5.31115C1.73851 5.17147 1.69211 5.02879 1.59065 4.92984L0.130663 3.50672C-0.12499 3.25741 0.0160199 2.8232 0.369462 2.77197L2.38715 2.47877C2.52749 2.45841 2.64881 2.3703 2.71156 2.24314L3.61385 0.414858C3.77171 0.0946242 4.22829 0.0946242 4.38632 0.414858Z" fill="#ED8A19"/>
</g>
<defs>
<clipPath id="clip0_12_344">
<rect width="8" height="8" fill="white"/>
</clipPath>
</defs>
</svg>
