<svg width="32" height="30" viewBox="0 0 32 30" fill="none" xmlns="http://www.w3.org/2000/svg">
<g clip-path="url(#clip0_13_783)">
<path fill-rule="evenodd" clip-rule="evenodd" d="M16.0417 4.78103C17.6589 3.68489 17.888 2.156 16.0521 0C15.2552 0.798134 13.5677 3.11739 16.0417 4.78103Z" fill="#F09418"/>
<path fill-rule="evenodd" clip-rule="evenodd" d="M23.1068 24.8406C23.211 24.5867 23.5 24.4649 23.7552 24.5685C24.0104 24.6722 24.1328 24.9598 24.0287 25.2138C23.8255 25.7139 23.5886 26.2114 23.3516 26.7116C22.9037 27.6548 22.4531 28.6059 22.2188 29.6139C22.1563 29.8808 21.8906 30.0466 21.6224 29.987C21.3542 29.9248 21.1875 29.6605 21.2474 29.3936C21.5052 28.2793 21.9792 27.2791 22.4505 26.2892C22.6797 25.8072 22.9063 25.3304 23.1068 24.8406Z" fill="#F09418"/>
<path fill-rule="evenodd" clip-rule="evenodd" d="M7.89062 25.2112C7.78646 24.9572 7.91146 24.6696 8.16406 24.566C8.41927 24.4623 8.70833 24.5867 8.8125 24.838C9.01302 25.3304 9.23958 25.8072 9.46615 26.284C9.91927 27.2402 10.3776 28.2042 10.6432 29.277C10.7083 29.5413 10.5443 29.8108 10.276 29.873C10.0104 29.9378 9.73958 29.7746 9.67708 29.5076C9.4375 28.5385 9 27.6186 8.56771 26.7038C8.33073 26.2089 8.09635 25.7113 7.89062 25.2112Z" fill="#F09418"/>
<path fill-rule="evenodd" clip-rule="evenodd" d="M15.4739 23.1874C15.4739 22.9127 15.6979 22.6924 15.9713 22.6924C16.2474 22.6924 16.4687 22.9153 16.4687 23.1874V29.2459C16.4687 29.5206 16.2448 29.7409 15.9713 29.7409C15.6953 29.7409 15.4739 29.518 15.4739 29.2459V23.1874Z" fill="#F09418"/>
<path fill-rule="evenodd" clip-rule="evenodd" d="M29.3151 10.4639C30.888 10.0803 31.5104 8.96346 30.7162 6.76082C29.8646 7.14952 27.8828 8.46074 29.3151 10.4639Z" fill="#F09418"/>
<path fill-rule="evenodd" clip-rule="evenodd" d="M28.9036 12.5421C30.1927 13.1381 30.9192 13.0863 32 11.148C30.6614 11.0184 29.362 10.5986 28.9036 12.5421ZM28.125 12.2545C26.7604 11.8632 26.2448 11.3475 26.7083 9.17854C27.8047 9.95595 29.0599 10.4872 28.125 12.2545ZM23.8594 23.5735C22.0026 23.0396 21.3021 22.34 21.9323 19.391C23.4245 20.4457 25.1328 21.1687 23.8594 23.5735ZM25.0338 20.4509C23.1771 19.9171 22.4765 19.2174 23.1067 16.2685C24.5989 17.3231 26.3047 18.0461 25.0338 20.4509ZM26.1875 17.3905C24.5364 16.9163 23.914 16.2944 24.4739 13.6719C25.8021 14.61 27.3203 15.2527 26.1875 17.3905ZM27.2161 14.6696C25.75 14.2498 25.1979 13.6953 25.6953 11.3682C26.8724 12.2001 28.2187 12.7727 27.2161 14.6696ZM24.6588 23.8689C26.4114 24.68 27.401 24.6074 28.8724 21.9694C27.0495 21.7932 25.2838 21.2257 24.6588 23.8689ZM25.8333 20.7463C27.5859 21.5574 28.5755 21.4848 30.0469 18.8469C28.2239 18.6706 26.4583 18.1031 25.8333 20.7463ZM26.9791 17.6833C28.539 18.4037 29.4166 18.3415 30.7239 15.9964C29.1041 15.8383 27.5338 15.333 26.9791 17.6833ZM27.9974 14.9598C29.3802 15.5999 30.1614 15.5429 31.3229 13.462C29.8854 13.3221 28.4896 12.8738 27.9974 14.9598Z" fill="#FFD203"/>
<path fill-rule="evenodd" clip-rule="evenodd" d="M2.68493 10.3835C1.11201 9.99999 0.489613 8.88312 1.28388 6.68048C2.13545 7.07177 4.11722 8.3804 2.68493 10.3835Z" fill="#F09418"/>
<path fill-rule="evenodd" clip-rule="evenodd" d="M3.09635 12.4644C1.80729 13.0604 1.08073 13.006 0 11.0676C1.33854 10.9381 2.63802 10.5209 3.09635 12.4644ZM8.14062 23.4931C9.9974 22.9593 10.6979 22.2596 10.0677 19.3107C8.57552 20.3654 6.86719 21.091 8.14062 23.4931ZM6.96615 20.3706C8.82292 19.8367 9.52344 19.1371 8.89323 16.1881C7.40104 17.2428 5.69531 17.9658 6.96615 20.3706ZM5.8125 17.3102C7.46354 16.836 8.08594 16.214 7.52604 13.5916C6.19792 14.5297 4.67969 15.1723 5.8125 17.3102ZM4.78385 14.5893C6.25 14.1695 6.80208 13.6149 6.30469 11.2879C5.1276 12.1223 3.78125 12.6924 4.78385 14.5893ZM3.875 12.1741C5.23958 11.7828 5.75521 11.2672 5.29167 9.09821C4.19531 9.87561 2.9401 10.4068 3.875 12.1741ZM7.34115 23.7911C5.58854 24.6022 4.59896 24.5297 3.1276 21.8917C4.95052 21.7155 6.71615 21.1454 7.34115 23.7911ZM6.16667 20.6686C4.41406 21.4797 3.42448 21.4071 1.95312 18.7691C3.77604 18.5929 5.54167 18.0228 6.16667 20.6686ZM5.02083 17.603C3.46094 18.3234 2.58333 18.2612 1.27604 15.916C2.89583 15.758 4.46615 15.2526 5.02083 17.603ZM4.0026 14.8821C2.61979 15.5221 1.83854 15.4651 0.677083 13.3843C2.11458 13.2418 3.51042 12.7935 4.0026 14.8821Z" fill="#FFD203"/>
<path fill-rule="evenodd" clip-rule="evenodd" d="M16.4635 10.4276C18.3021 10.5701 19.1615 10.1762 19.5911 7.33091C17.9036 7.77921 16.1354 7.85695 16.4635 10.4276ZM16.4609 7.31018C18.1745 7.44234 18.974 7.07696 19.3724 4.42601C17.8021 4.84063 16.1562 4.91577 16.4609 7.31018ZM15.4453 21.9228C13.1146 22.1016 12.026 21.604 11.4844 17.9995C13.6224 18.5644 15.862 18.6655 15.4453 21.9228ZM15.4453 17.8906C13.1146 18.0694 12.026 17.5719 11.4844 13.9673C13.6224 14.5348 15.862 14.6359 15.4453 17.8906ZM15.4505 13.9414C13.3776 14.1021 12.4089 13.659 11.9271 10.4535C13.8281 10.9562 15.8203 11.0443 15.4505 13.9414ZM15.4557 10.4276C13.6172 10.5701 12.7578 10.1762 12.3281 7.33091C14.0156 7.77921 15.7839 7.85695 15.4557 10.4276ZM15.4583 7.31018C13.7448 7.44234 12.9453 7.07696 12.5469 4.42601C14.1172 4.84063 15.7656 4.91577 15.4583 7.31018ZM16.4766 21.9228C18.8073 22.1016 19.8958 21.604 20.4375 17.9995C18.2995 18.5644 16.0573 18.6655 16.4766 21.9228ZM16.4766 17.8906C18.8073 18.0694 19.8958 17.5719 20.4375 13.9673C18.2995 14.5348 16.0573 14.6359 16.4766 17.8906ZM16.4688 13.9414C18.5417 14.1021 19.5104 13.659 19.9922 10.4535C18.0911 10.9562 16.099 11.0443 16.4688 13.9414Z" fill="#FFD203"/>
</g>
<defs>
<clipPath id="clip0_13_783">
<rect width="32" height="30" fill="white"/>
</clipPath>
</defs>
</svg>
